<?xml version="1.0" standalone="no"?>
<!DOCTYPE svg PUBLIC "-//W3C//DTD SVG 20010904//EN"
 "http://www.w3.org/TR/2001/REC-SVG-20010904/DTD/svg10.dtd">
<svg version="1.0" xmlns="http://www.w3.org/2000/svg"
 width="352.000000pt" height="352.000000pt" viewBox="0 0 352.000000 352.000000"
 preserveAspectRatio="xMidYMid meet">
<metadata>
Created by potrace 1.14, written by Peter Selinger 2001-2017
</metadata>
<g transform="translate(0.000000,352.000000) scale(0.100000,-0.100000)"
fill="#000000" stroke="none">
<path d="M1154 3055 c-9 -22 1 -29 15 -11 8 10 9 16 1 21 -5 3 -13 -1 -16 -10z"/>
<path d="M1375 3000 c-3 -5 -1 -10 4 -10 6 0 11 5 11 10 0 6 -2 10 -4 10 -3 0
-8 -4 -11 -10z"/>
<path d="M1925 2990 c3 -5 10 -10 16 -10 5 0 9 5 9 10 0 6 -7 10 -16 10 -8 0
-12 -4 -9 -10z"/>
<path d="M1756 2981 c-4 -7 -5 -15 -2 -18 9 -9 19 4 14 18 -4 11 -6 11 -12 0z"/>
<path d="M710 2961 c0 -5 3 -17 6 -26 5 -13 9 -14 15 -3 7 11 11 10 19 -2 11
-17 14 -1 4 24 -6 17 -44 23 -44 7z"/>
<path d="M886 2961 c-4 -5 -2 -12 3 -15 5 -4 12 -2 15 3 4 5 2 12 -3 15 -5 4
-12 2 -15 -3z"/>
<path d="M1777 2953 c-4 -3 -7 -11 -7 -17 0 -6 5 -5 12 2 6 6 9 14 7 17 -3 3
-9 2 -12 -2z"/>
<path d="M905 2929 c-4 -5 -13 -8 -21 -5 -8 3 -14 -1 -14 -9 0 -8 7 -15 15
-15 8 0 15 4 15 9 0 5 8 11 18 13 12 2 13 6 5 11 -6 4 -15 2 -18 -4z"/>
<path d="M1670 2930 c0 -5 5 -10 10 -10 6 0 10 5 10 10 0 6 -4 10 -10 10 -5 0
-10 -4 -10 -10z"/>
<path d="M944 2916 c-8 -22 3 -33 18 -18 9 9 9 15 0 24 -9 9 -13 7 -18 -6z"/>
<path d="M1790 2920 c0 -5 4 -10 9 -10 6 0 13 5 16 10 3 6 -1 10 -9 10 -9 0
-16 -4 -16 -10z"/>
<path d="M2379 2922 c-4 -12 -31 -14 -109 -10 -14 1 -38 -2 -55 -7 -16 -4 -59
-9 -95 -12 -65 -4 -97 -20 -97 -48 0 -8 3 -15 6 -15 6 0 6 -47 1 -60 -1 -3 -2
-9 -1 -13 1 -5 -4 -5 -11 -1 -9 6 -9 3 1 -9 9 -11 10 -17 2 -18 -6 -1 -17 -2
-23 -3 -7 -1 -24 4 -38 11 -31 16 -62 17 -78 1 -9 -9 -12 -9 -12 1 0 7 -5 9
-10 6 -6 -4 -7 -12 -3 -18 4 -8 1 -7 -9 1 -14 11 -16 10 -11 -6 2 -11 0 -23
-7 -27 -14 -9 -17 -6 -22 20 -7 44 -58 75 -105 65 -28 -7 -35 -5 -44 12 -6 11
-23 25 -37 31 -15 7 -27 20 -27 30 0 23 -19 23 -23 0 -2 -10 -14 -28 -25 -41
-14 -15 -21 -33 -19 -50 3 -21 1 -24 -8 -15 -7 6 -20 9 -29 6 -13 -5 -14 -3
-4 7 18 19 -2 50 -32 50 -31 0 -32 -14 -4 -34 l22 -15 -32 -26 c-17 -15 -31
-35 -31 -45 0 -11 -10 -20 -26 -24 -24 -6 -25 -9 -12 -24 25 -29 28 -39 14
-51 -10 -9 -17 -7 -27 6 -12 15 -12 16 1 9 8 -4 6 0 -4 8 -11 9 -26 16 -33 16
-7 0 -13 5 -13 10 0 6 7 10 15 10 9 0 18 7 21 15 4 8 9 13 13 11 4 -3 12 4 19
15 7 11 8 19 2 19 -5 0 -10 -5 -10 -11 0 -6 -8 -8 -19 -4 -11 3 -22 1 -26 -5
-3 -5 -16 -15 -27 -21 -19 -10 -20 -9 -15 10 3 12 1 19 -3 16 -5 -3 -11 -1
-15 5 -3 5 -15 10 -25 10 -16 0 -18 -4 -11 -23 11 -28 -4 -58 -24 -51 -8 4
-15 1 -15 -6 0 -9 -4 -9 -17 1 -11 10 -14 10 -9 2 5 -9 1 -13 -12 -13 -15 0
-19 6 -16 26 2 21 0 23 -12 13 -11 -9 -14 -8 -14 5 0 9 6 16 13 16 8 0 7 3 -2
9 -12 8 -9 11 12 16 30 8 35 20 12 29 -8 3 -15 12 -15 21 0 13 -2 14 -14 3
-14 -13 -11 -32 4 -23 5 3 11 1 14 -4 8 -13 -6 -20 -43 -25 -26 -3 -29 -1 -20
11 10 11 14 11 21 1 6 -8 7 0 3 21 -5 23 -4 31 4 27 7 -5 8 -1 4 10 -6 16 -8
16 -16 2 -8 -12 -15 -10 -43 18 -19 18 -34 39 -34 48 0 21 -16 28 -32 14 -21
-21 -65 -22 -76 -1 -10 16 -12 17 -45 1 -28 -13 -34 -21 -30 -41 4 -21 33 -35
33 -16 0 5 7 6 15 3 9 -4 15 0 15 7 0 11 2 11 9 -1 6 -8 8 -17 5 -22 -2 -4 4
-12 15 -17 14 -8 20 -8 24 2 5 17 39 15 54 -3 7 -8 12 -26 13 -40 0 -20 -2
-22 -10 -10 -5 8 -10 10 -10 4 0 -7 -7 -14 -14 -17 -10 -4 -13 -1 -10 7 8 20
-21 27 -43 10 -11 -9 -13 -13 -4 -12 8 2 20 -7 26 -19 7 -13 15 -20 18 -16 4
3 7 -1 7 -9 0 -9 -11 -23 -25 -32 -24 -16 -27 -16 -55 1 -35 20 -37 28 -12 42
15 9 15 12 2 21 -11 7 -18 6 -25 -4 -6 -7 -22 -11 -38 -9 -15 2 -27 0 -27 -5
0 -5 12 -9 28 -8 21 1 28 -4 30 -21 2 -13 -1 -23 -7 -23 -5 0 -13 -9 -16 -20
-4 -11 -10 -18 -15 -15 -5 3 -12 0 -16 -6 -4 -8 -3 -9 4 -5 7 4 12 3 12 -3 0
-5 3 -17 7 -26 5 -15 3 -16 -15 -6 -12 7 -22 8 -22 2 0 -5 -9 -7 -20 -4 -25 7
-26 -5 -3 -24 17 -13 17 -13 -2 -11 -26 4 -37 19 -24 34 19 23 -26 37 -60 19
-36 -18 -51 -20 -28 -2 22 15 32 58 12 51 -8 -3 -11 -12 -9 -19 3 -7 1 -16 -5
-20 -7 -3 -11 3 -11 15 0 13 -5 20 -12 17 -7 -2 -12 -11 -10 -18 2 -8 -5 -6
-18 6 -25 22 -39 10 -34 -31 1 -14 -2 -22 -8 -18 -5 3 -7 12 -4 19 3 8 -2 11
-15 8 -13 -4 -19 0 -19 11 0 10 6 13 15 10 9 -4 15 0 15 9 0 9 -9 19 -20 22
-11 3 -20 11 -20 16 0 5 -7 9 -15 9 -8 0 -15 -5 -15 -11 0 -6 -7 -9 -15 -5 -8
3 -15 2 -16 -2 -4 -36 -19 -71 -19 -44 0 7 -4 12 -8 12 -5 0 -9 -7 -9 -15 0
-8 4 -15 8 -15 4 0 11 -9 14 -20 3 -11 11 -20 16 -20 6 0 8 4 5 8 -2 4 3 8 12
8 9 0 28 3 42 7 14 4 19 4 12 1 -6 -3 -9 -10 -6 -16 3 -5 -2 -9 -12 -7 -28 3
-54 -11 -54 -29 0 -12 -3 -13 -12 -4 -14 14 -38 16 -38 2 0 -5 8 -6 17 -3 16
6 16 5 4 -11 -14 -17 -16 -17 -28 0 -7 9 -9 22 -6 28 4 6 -1 5 -10 -3 -22 -17
-23 -53 -2 -45 8 4 15 1 15 -4 0 -6 12 -12 27 -14 25 -3 26 -4 10 -20 -12 -12
-13 -18 -4 -21 9 -3 9 -8 -2 -18 -9 -9 -11 -9 -7 -1 4 6 2 12 -3 12 -15 0 -14
-12 3 -35 8 -11 11 -26 8 -34 -3 -9 -1 -12 5 -8 6 4 13 2 15 -4 2 -6 20 -12
40 -14 21 -2 41 -6 46 -9 4 -2 26 3 48 13 21 10 47 17 57 15 9 -1 15 2 11 7
-3 5 -8 7 -12 5 -4 -2 -13 2 -19 10 -8 8 -9 15 -3 19 6 3 10 1 10 -4 0 -6 10
-11 23 -11 12 0 31 -7 42 -16 17 -12 18 -16 5 -24 -8 -5 -18 -6 -22 -4 -4 3
-8 0 -8 -5 0 -6 -8 -11 -17 -11 -16 0 -16 -2 -3 -11 12 -8 11 -9 -5 -5 -11 3
-27 0 -35 -7 -19 -15 -45 -64 -45 -86 0 -10 -7 -15 -18 -13 -9 2 -17 -2 -17
-8 0 -5 -6 -9 -12 -8 -8 2 -12 -6 -10 -22 2 -20 1 -22 -7 -10 -9 13 -11 13
-11 -2 0 -10 5 -18 10 -18 6 0 10 -9 10 -20 0 -11 4 -20 10 -20 5 0 7 7 4 15
-4 8 -1 15 5 15 6 0 11 8 12 18 0 10 3 12 6 5 2 -7 13 -13 24 -13 10 0 19 -6
19 -14 0 -19 -17 -29 -25 -16 -3 5 -13 10 -22 10 -9 0 -13 -3 -10 -7 4 -3 1
-13 -6 -21 -10 -13 -9 -15 6 -9 12 5 16 3 11 -5 -5 -8 -2 -9 9 -5 21 8 22 -6
1 -24 -10 -8 -13 -21 -9 -36 4 -16 1 -23 -9 -23 -10 0 -12 7 -8 22 4 17 2 20
-13 14 -14 -5 -16 -4 -7 7 7 8 8 18 4 22 -4 5 -1 5 7 0 9 -5 12 -4 10 4 -3 7
-7 11 -10 9 -3 -2 -13 3 -22 10 -24 20 -37 6 -32 -33 3 -20 0 -35 -5 -35 -6 0
-10 -4 -10 -8 0 -5 7 -9 15 -9 8 0 12 4 9 9 -3 4 -2 8 3 8 13 -1 45 -50 33
-50 -6 0 -8 -4 -5 -10 9 -15 -11 -12 -27 4 -12 11 -18 11 -37 -5 -13 -11 -19
-19 -13 -19 5 0 19 -15 31 -32 11 -18 21 -27 21 -20 0 10 3 10 14 0 18 -16 11
-28 -16 -28 -17 0 -18 -3 -9 -14 10 -12 8 -13 -9 -9 -15 4 -19 11 -15 24 4 11
2 19 -4 19 -6 0 -8 7 -4 15 3 9 -2 24 -12 35 -16 18 -16 20 -2 26 15 5 15 8 1
29 -19 29 -19 36 -3 46 19 11 21 42 2 35 -8 -3 -17 -6 -19 -6 -2 0 -4 -8 -4
-17 0 -14 -2 -15 -9 -4 -5 7 -13 11 -19 7 -5 -3 -12 0 -15 8 -6 16 -47 10 -47
-6 0 -5 5 -6 10 -3 6 3 10 -1 10 -10 0 -9 5 -13 10 -10 6 3 10 2 10 -4 0 -18
-25 -17 -41 2 -15 19 -16 18 -16 -27 -1 -28 4 -46 11 -46 7 0 7 -3 -2 -8 -10
-7 -10 -15 1 -40 7 -18 16 -29 20 -25 4 3 7 1 7 -5 0 -7 -9 -12 -19 -12 -11 0
-18 -6 -17 -15 4 -26 17 -30 32 -10 14 19 15 19 20 -3 4 -12 10 -19 15 -16 5
3 7 10 4 15 -8 12 37 7 51 -6 8 -7 3 -15 -19 -28 -22 -13 -27 -21 -18 -27 8
-4 11 -16 6 -29 -3 -12 -11 -18 -17 -15 -7 4 -8 2 -4 -4 4 -7 1 -12 -8 -12 -9
0 -13 -6 -10 -15 5 -13 8 -13 21 0 8 8 24 15 36 15 18 0 19 -2 7 -10 -8 -5
-11 -10 -6 -10 6 0 5 -5 -2 -12 -9 -9 -7 -14 6 -24 16 -12 15 -13 -4 -14 -11
0 -21 -6 -21 -14 0 -8 6 -12 15 -8 11 4 13 1 7 -8 -6 -10 -2 -12 19 -8 14 3
26 1 26 -4 0 -5 5 -6 12 -2 7 5 8 3 4 -5 -5 -7 -14 -10 -20 -8 -7 3 -17 -3
-23 -12 -9 -14 -7 -17 8 -18 11 -1 17 1 15 5 -3 4 3 8 13 8 9 0 18 -8 18 -17
1 -13 -4 -16 -20 -12 -12 3 -32 5 -45 4 -13 0 -20 4 -17 9 3 6 -1 10 -9 10 -9
0 -13 6 -10 14 4 11 -1 14 -21 12 -35 -4 -39 -11 -19 -30 13 -14 14 -19 2 -33
-11 -15 -11 -16 4 -10 10 3 18 3 18 -1 0 -11 59 -12 65 -2 9 15 25 12 25 -4 0
-9 7 -13 20 -11 11 2 22 0 25 -5 3 -5 -4 -7 -15 -5 -11 2 -20 0 -20 -6 0 -5
-7 -9 -15 -9 -8 0 -15 -9 -15 -20 0 -11 5 -20 11 -20 8 0 8 -4 0 -14 -10 -12
-8 -15 11 -18 15 -2 22 -9 20 -20 -2 -10 2 -18 8 -18 5 0 10 4 10 8 0 5 7 9
15 9 18 0 18 -1 0 -36 -8 -16 -11 -31 -8 -35 4 -3 1 -6 -6 -6 -7 0 -10 -4 -7
-9 11 -16 41 -4 39 15 -1 17 1 17 17 -4 18 -22 37 -31 25 -12 -3 6 -1 10 4 10
17 0 -11 40 -29 41 -10 0 -8 3 5 8 19 8 19 8 -3 20 -15 8 -21 18 -18 28 5 13
4 14 -9 3 -13 -11 -14 -10 -9 4 3 9 1 16 -5 16 -6 0 -11 4 -11 8 0 5 7 9 15 9
8 0 15 -4 15 -9 0 -4 9 -8 19 -8 11 0 23 -5 26 -10 4 -6 11 -8 16 -5 5 4 9 2
9 -3 0 -5 -9 -12 -21 -15 -12 -3 -18 -10 -14 -16 3 -6 11 -9 16 -6 5 3 6 -1 3
-9 -4 -11 0 -14 15 -11 12 2 19 0 16 -5 -3 -5 -1 -11 5 -15 5 -3 10 2 11 12 0
13 2 14 6 4 3 -8 -2 -20 -13 -28 -10 -7 -12 -13 -5 -13 7 0 9 -5 5 -12 -5 -8
-2 -9 10 -5 10 4 20 7 22 7 2 0 4 6 4 13 0 7 10 14 22 14 16 2 19 0 10 -6 -8
-5 -13 -11 -13 -15 3 -23 0 -39 -7 -31 -12 17 -29 15 -48 -7 -11 -12 -14 -18
-7 -15 6 4 14 3 18 -3 3 -5 -3 -10 -14 -10 -18 0 -19 -3 -9 -24 12 -28 41 -45
31 -19 -4 11 -2 14 5 9 7 -4 12 -2 12 3 0 6 4 11 9 11 5 0 7 -10 3 -22 -3 -14
-2 -19 6 -14 7 4 12 1 12 -9 0 -10 -5 -13 -12 -9 -7 4 -8 3 -4 -4 10 -17 26
-15 26 3 0 8 9 19 20 25 18 10 20 8 20 -25 0 -19 5 -35 11 -35 5 0 7 6 3 13
-5 7 0 6 11 -3 10 -8 16 -10 12 -4 -4 7 2 23 13 35 12 15 18 18 14 7 -3 -9 2
-27 10 -40 9 -14 13 -28 9 -32 -4 -4 1 -4 12 -1 16 6 15 3 -5 -15 -14 -12 -19
-19 -12 -15 7 3 15 -1 18 -10 6 -14 9 -14 26 4 15 17 21 19 32 9 17 -16 11
-28 -12 -28 -15 0 -15 -2 -2 -10 12 -8 11 -10 -7 -10 -13 0 -23 -4 -23 -10 0
-5 -1 -13 -2 -17 -2 -3 7 -7 19 -8 12 -1 20 2 18 6 -3 4 2 9 10 13 9 3 15 0
15 -9 0 -8 5 -15 10 -15 6 0 10 -5 10 -11 0 -7 -12 -9 -30 -7 -17 3 -33 1 -36
-4 -7 -11 16 -39 27 -33 4 3 7 -3 6 -14 -1 -16 -7 -19 -27 -17 -16 2 -27 -2
-27 -10 0 -6 7 -10 15 -7 8 3 18 0 23 -8 12 -19 11 -32 -1 -24 -16 10 -12 -11
5 -25 12 -10 15 -10 15 4 0 9 7 16 16 16 14 0 15 -2 3 -17 -8 -9 -9 -14 -3
-10 7 4 14 1 16 -6 7 -17 -2 -38 -13 -31 -5 3 -9 0 -9 -5 0 -14 23 -14 38 1 8
8 14 4 23 -16 8 -17 15 -22 20 -15 7 12 49 -22 49 -40 0 -6 4 -13 10 -16 6 -3
7 1 4 9 -4 9 -1 16 6 16 6 0 14 -9 17 -20 3 -13 14 -20 29 -20 13 0 24 -5 24
-11 0 -8 4 -8 14 0 9 8 16 8 20 2 4 -6 13 -8 21 -4 8 3 15 0 15 -6 0 -21 16
-11 17 11 2 18 0 20 -7 8 -5 -8 -10 -13 -11 -10 -6 31 -3 50 7 54 16 6 20 1
29 -42 5 -23 11 -32 21 -28 7 3 16 1 19 -4 4 -6 1 -10 -6 -10 -7 0 -9 -3 -6
-6 3 -4 2 -16 -4 -28 -9 -18 -7 -17 9 3 l20 24 13 -36 c7 -21 17 -37 22 -37 5
0 6 7 3 16 -5 13 -4 14 7 6 15 -13 97 -12 97 1 0 4 10 18 21 30 15 15 23 18
26 10 4 -10 10 -9 26 2 29 21 35 19 30 -8 -4 -21 -1 -24 24 -22 49 3 75 15 68
33 -3 8 0 19 7 24 10 6 9 8 -3 8 -9 0 -20 7 -23 16 -10 26 -7 28 12 11 23 -21
35 -12 21 14 -7 15 -6 21 5 25 9 3 14 14 13 25 -4 25 -17 37 -17 16 0 -10 -4
-17 -10 -17 -5 0 -10 4 -10 8 0 11 44 52 55 52 5 0 0 -7 -11 -15 -20 -15 -8
-21 15 -6 15 10 7 31 -13 31 -7 0 -13 7 -13 14 0 8 3 15 6 14 21 -2 31 4 31
20 0 14 2 15 10 2 6 -10 10 -11 10 -2 0 6 7 12 15 12 15 0 19 -11 16 -39 -2
-8 2 -10 10 -5 8 5 10 3 4 -5 -5 -9 -11 -9 -17 -3 -14 14 -38 4 -38 -16 0 -13
3 -12 16 4 12 14 14 15 11 3 -4 -11 3 -21 20 -28 18 -8 23 -16 18 -29 -4 -9
-8 -23 -8 -30 0 -7 -11 -1 -23 15 -13 15 -23 24 -24 19 0 -5 -6 -4 -12 2 -9 7
-17 5 -28 -6 -13 -14 -12 -15 3 -9 9 3 27 2 39 -3 22 -9 22 -10 2 -7 -11 1
-20 -2 -20 -8 1 -5 7 -9 14 -7 17 4 15 -13 -4 -32 -9 -9 -11 -16 -4 -16 6 0 8
-5 3 -12 -15 -25 -12 -44 3 -23 8 11 18 20 22 20 4 0 7 10 6 23 0 12 4 22 9
22 11 0 57 -47 57 -58 0 -8 45 -52 54 -52 3 0 6 7 6 15 0 8 -5 15 -11 15 -5 0
-8 4 -4 9 3 5 1 12 -5 16 -15 10 -12 35 5 35 8 0 15 9 15 20 0 24 29 38 40 20
6 -10 9 -8 13 6 4 16 5 17 6 2 1 -21 12 -23 30 -6 10 11 12 10 9 -1 -2 -7 5
-15 16 -16 30 -5 44 -24 26 -35 -13 -9 -13 -10 0 -10 9 0 21 5 27 11 8 8 15 4
27 -12 9 -13 16 -18 16 -11 0 6 4 12 9 12 10 0 8 -27 -3 -53 -12 -26 -3 -30
21 -8 19 18 20 18 32 -1 6 -10 9 -23 5 -29 -3 -6 0 -9 7 -8 8 2 24 -2 37 -9
18 -10 22 -10 22 0 0 10 2 10 9 -1 5 -8 8 -24 6 -37 -2 -18 3 -24 17 -24 12 0
16 -4 12 -12 -5 -7 -3 -8 5 -4 7 5 10 15 7 23 -4 10 -2 13 8 10 10 -4 12 0 8
15 -3 15 -1 19 9 16 8 -3 14 -10 14 -16 0 -5 3 -14 8 -18 4 -4 7 0 7 9 0 18 5
22 43 31 22 5 27 3 27 -11 0 -15 2 -16 10 -3 8 12 10 9 10 -11 0 -25 3 -26 48
-25 32 1 46 5 44 14 -1 6 4 12 12 12 10 0 13 7 11 20 -2 12 0 18 6 14 6 -3 8
-9 5 -12 -7 -6 13 -32 24 -32 5 0 7 8 5 18 -2 9 -4 26 -4 37 -1 17 -3 17 -11
5 -5 -8 -10 -10 -10 -5 1 6 7 19 15 29 13 17 15 18 15 3 0 -10 9 -25 19 -34
11 -9 18 -20 16 -24 -3 -4 2 -10 11 -13 11 -4 15 -2 11 7 -3 7 1 21 9 31 7 11
11 23 7 29 -3 6 -1 7 5 3 7 -4 12 -1 12 7 0 9 16 14 52 16 29 1 54 4 57 7 2 2
10 -1 18 -7 10 -9 13 -8 13 5 0 15 19 22 45 16 6 -1 6 2 2 7 -5 4 -14 8 -20 8
-5 0 -12 6 -14 13 -3 6 0 12 7 12 6 0 8 5 5 10 -3 6 0 11 7 11 18 2 20 1 43
-7 18 -7 19 -6 6 10 -13 15 -12 18 6 22 26 7 36 50 16 70 -14 14 -14 15 8 18
7 0 16 12 21 25 7 19 6 22 -5 12 -8 -6 -18 -7 -23 -3 -4 4 -3 0 3 -8 10 -13 8
-16 -6 -16 -13 0 -16 6 -13 23 3 17 0 23 -12 23 -13 0 -10 6 11 25 15 14 22
24 15 23 -8 -2 -18 7 -23 20 -7 17 -5 24 7 29 13 5 10 9 -11 17 -26 11 -27 13
-12 28 9 8 13 18 10 22 -4 3 -1 6 6 6 7 0 9 4 6 10 -3 5 -1 10 4 10 6 0 11 5
11 11 0 5 -4 8 -9 5 -4 -3 -16 3 -26 14 -14 15 -15 20 -4 20 9 0 10 3 3 8 -6
4 -17 17 -23 30 -7 13 -18 21 -26 18 -7 -2 -19 3 -27 11 -11 15 -11 16 5 10
22 -8 23 9 1 21 -9 5 -14 15 -10 21 4 6 12 8 18 5 8 -5 9 -1 5 12 -7 18 -7 18
8 0 8 -11 15 -16 15 -12 0 5 7 3 15 -4 8 -6 18 -9 23 -6 5 3 32 -13 61 -34 29
-22 57 -40 61 -40 5 0 22 12 39 26 24 20 37 24 60 19 66 -14 103 32 113 143 1
6 5 12 9 12 4 0 5 10 2 23 -5 18 -3 20 8 10 19 -19 42 -16 62 7 10 12 23 18
29 14 7 -5 9 -2 5 9 -3 8 1 21 9 27 8 8 14 8 14 2 0 -19 33 -23 51 -6 13 11
19 31 19 56 0 42 -18 68 -46 68 -11 0 -14 4 -7 13 25 32 5 87 -32 87 -8 0 -18
8 -22 18 -3 9 -13 25 -21 34 -8 10 -12 24 -8 33 7 20 -24 51 -47 47 -14 -3
-17 2 -13 22 4 23 -1 27 -47 45 -44 16 -52 23 -50 43 4 52 8 66 14 62 4 -2 9
-1 11 3 1 5 16 15 32 23 16 8 31 21 34 29 3 8 0 11 -6 7 -6 -3 -9 1 -8 9 3 18
21 21 21 3 0 -6 6 -13 13 -16 12 -4 12 0 1 19 -7 13 -12 27 -11 31 1 5 -1 7
-6 7 -27 -4 -34 3 -28 29 3 15 3 22 0 16 -3 -7 -13 -10 -24 -7 -16 4 -17 8 -5
36 9 21 10 39 4 55 -6 14 -5 21 1 17 5 -3 8 7 7 25 -2 27 -17 45 -17 19 0 -5
-5 -7 -11 -4 -6 4 -8 13 -5 21 3 9 -4 16 -19 20 -14 3 -22 10 -20 15 3 5 -2
20 -11 35 -15 22 -15 27 -3 35 19 12 29 11 29 -2 0 -8 4 -8 14 0 10 9 16 9 21
1 5 -8 11 -8 21 1 10 8 14 8 14 0 0 -6 -4 -11 -10 -11 -5 0 -9 -3 -8 -7 3 -14
-14 -43 -25 -43 -7 0 -7 4 1 12 15 15 16 38 2 38 -5 0 -10 -9 -10 -19 0 -11
-5 -23 -10 -26 -19 -12 0 -24 23 -16 12 5 26 9 30 9 5 0 12 4 15 8 4 4 1 4 -5
0 -7 -4 -13 -2 -13 4 0 14 25 40 38 40 6 0 12 7 16 15 4 12 0 14 -18 11 -18
-3 -26 2 -35 21 -7 14 -7 22 -1 18 5 -3 11 1 11 9 1 9 2 22 3 29 6 36 -56 107
-94 107 -14 0 -32 6 -39 13 -11 10 -13 10 -7 0 4 -7 5 -13 2 -13 -3 0 -10 10
-17 22 -10 18 -9 20 5 15 26 -10 2 27 -33 53 -27 19 -34 19 -77 9 -36 -9 -51
-9 -66 0 -12 8 -24 9 -31 3 -21 -16 -45 -10 -39 10 5 21 -16 78 -30 78 -5 0
-7 4 -3 9 3 5 -2 16 -10 25 -8 8 -14 20 -13 27 2 6 -15 17 -37 24 -22 7 -34
13 -27 14 7 1 11 5 8 10 -7 10 -31 9 -42 -2 -4 -3 -16 -1 -27 5 -16 8 -22 8
-25 -2 -3 -7 -13 -19 -23 -28 -15 -13 -16 -19 -6 -31 9 -12 7 -12 -8 1 -14 12
-25 14 -35 8 -24 -15 -28 -12 -24 20 2 16 -2 32 -8 36 -7 4 -8 3 -4 -4 4 -7 1
-12 -6 -12 -8 0 -14 9 -15 20 -1 11 2 18 6 16 4 -3 8 1 8 9 0 8 -4 15 -9 15
-4 0 -8 7 -8 16 0 8 -4 13 -9 10 -5 -4 -11 0 -13 6 -4 10 -6 10 -9 0z m123
-189 c21 -51 21 -75 1 -71 -13 2 -19 14 -21 43 -2 22 -9 43 -15 47 -8 5 -6 8
6 8 10 0 22 -12 29 -27z m-1239 -79 c-8 -20 -22 -17 -20 5 0 10 7 17 13 14 7
-3 10 -11 7 -19z m-177 -21 c-11 -11 -17 4 -9 23 7 18 8 18 11 1 2 -10 1 -21
-2 -24z m-42 -8 c3 -8 3 -15 0 -15 -3 0 -12 7 -20 15 -13 13 -13 15 -1 15 8 0
17 -7 21 -15z m635 -2 c-4 -22 3 -33 20 -33 11 0 21 5 23 12 3 7 11 9 24 3 10
-4 23 -7 27 -6 5 1 7 -4 4 -11 -2 -7 -14 -12 -27 -10 -17 2 -21 -2 -16 -14 3
-8 6 -20 6 -26 0 -6 6 -8 13 -5 8 3 13 -3 13 -14 0 -13 -7 -19 -24 -19 -13 0
-20 -4 -17 -10 11 -18 -2 -10 -35 20 -18 16 -36 28 -40 25 -5 -3 -6 4 -3 15 3
11 9 20 14 20 5 0 6 14 3 30 -4 19 -2 30 5 30 6 0 10 -3 10 -7z m1207 -2 c-4
-5 0 -12 6 -15 7 -3 4 -5 -7 -3 -11 1 -27 -2 -35 -7 -8 -4 -4 2 9 13 25 22 36
27 27 12z m-2389 -37 c-3 -3 -12 -4 -19 -1 -8 3 -5 6 6 6 11 1 17 -2 13 -5z
m658 -26 c4 -3 2 -9 -3 -12 -5 -3 -15 1 -21 8 -10 11 -9 14 3 12 9 -1 18 -5
21 -8z m-541 -6 c3 -5 -1 -9 -9 -9 -8 0 -12 4 -9 9 3 4 7 8 9 8 2 0 6 -4 9 -8z
m109 -3 c-6 -6 -9 -17 -7 -24 3 -7 1 -16 -5 -20 -6 -3 -11 1 -11 10 0 9 -5 13
-11 10 -6 -4 -8 -14 -4 -24 6 -15 5 -15 -11 1 -17 17 -13 54 5 43 5 -3 12 -1
16 5 3 5 14 10 23 10 12 0 13 -3 5 -11z m-113 -78 c0 -8 8 -20 18 -28 16 -14
16 -14 0 -9 -10 3 -18 0 -18 -6 0 -22 -18 6 -33 49 l-14 42 23 -17 c13 -9 24
-23 24 -31z m2400 -12 c0 -4 -5 -11 -12 -15 -8 -5 -9 -2 -5 9 4 11 1 17 -8 17
-9 0 -12 6 -8 16 6 15 8 15 20 -2 7 -10 13 -21 13 -25z m-2284 5 c1 -9 0 -13
-4 -10 -3 4 -7 14 -8 22 -1 9 0 13 4 10 3 -4 7 -14 8 -22z m-36 -56 c0 6 7 9
15 6 8 -4 12 -10 9 -15 -3 -5 -10 -7 -15 -4 -11 7 -29 -36 -21 -49 3 -5 0 -6
-7 -1 -8 4 -10 17 -6 32 4 16 2 22 -4 18 -7 -3 -8 0 -5 10 5 12 9 13 20 4 10
-8 14 -8 14 -1z m-136 -46 c3 -5 -1 -9 -9 -9 -8 0 -12 4 -9 9 3 4 7 8 9 8 2 0
6 -4 9 -8z m2496 -2 c0 -5 -8 -10 -17 -10 -15 0 -16 2 -3 10 19 12 20 12 20 0z
m80 0 c0 -5 -4 -10 -10 -10 -5 0 -10 5 -10 10 0 6 5 10 10 10 6 0 10 -4 10
-10z m20 -344 c0 -3 -4 -8 -10 -11 -5 -3 -10 -1 -10 4 0 6 5 11 10 11 6 0 10
-2 10 -4z m-2520 -21 c0 -12 -19 -12 -23 0 -4 9 -1 12 9 8 7 -3 14 -7 14 -8z
m-47 -35 c13 -15 14 -20 3 -20 -7 0 -16 9 -19 20 -3 11 -4 20 -3 20 1 0 9 -9
19 -20z m-23 -51 c0 -6 -4 -7 -10 -4 -5 3 -10 11 -10 16 0 6 5 7 10 4 6 -3 10
-11 10 -16z m70 -6 c0 -10 -4 -14 -8 -8 -4 6 -11 13 -16 18 -5 4 -2 7 7 7 10
0 17 -8 17 -17z m-240 -43 c-8 -5 -10 -10 -5 -10 6 0 11 -10 12 -22 0 -13 -1
-17 -4 -9 -5 11 -7 11 -14 0 -5 -8 -7 -2 -7 19 1 22 6 32 17 32 14 0 14 -2 1
-10z m49 -156 c-10 -12 -14 -11 -24 3 -16 22 2 38 22 21 10 -8 10 -14 2 -24z
m15 -65 c-2 -4 0 -11 6 -14 8 -5 7 -11 -1 -21 -6 -7 -16 -11 -22 -7 -6 4 -8 0
-4 -10 4 -11 0 -15 -14 -14 -23 2 -24 5 -2 29 9 11 11 18 5 18 -7 0 -12 -5
-12 -11 0 -5 -4 -8 -10 -4 -13 8 20 40 42 41 9 0 15 -4 12 -7z m93 -126 c-3
-10 -5 -4 -5 12 0 17 2 24 5 18 2 -7 2 -21 0 -30z m1182 -29 c-38 -39 -59 -43
-59 -12 0 12 3 18 7 15 3 -4 13 2 20 13 8 11 19 18 24 15 5 -4 9 -2 9 4 0 6 7
8 16 4 12 -5 9 -12 -17 -39z m-1214 26 c3 -5 1 -10 -4 -10 -6 0 -11 5 -11 10
0 6 2 10 4 10 3 0 8 -4 11 -10z m1270 -48 c0 -7 6 -17 14 -22 12 -7 12 -11 2
-24 -7 -8 -9 -21 -5 -28 4 -7 -1 -6 -12 3 -10 9 -25 18 -33 21 -19 5 -25 49
-9 60 18 11 43 5 43 -10z m-1281 -7 c-4 -8 -8 -15 -10 -15 -2 0 -4 7 -4 15 0
8 4 15 10 15 5 0 7 -7 4 -15z m110 7 c3 -5 -1 -9 -9 -9 -8 0 -12 4 -9 9 3 4 7
8 9 8 2 0 6 -4 9 -8z m-15 -78 c-9 -11 -8 -14 5 -14 9 0 16 -8 16 -20 0 -11
-7 -20 -16 -20 -8 0 -12 -4 -9 -10 3 -5 -1 -10 -9 -10 -18 0 -22 25 -6 35 14
9 1 27 -15 21 -8 -3 -18 1 -25 8 -8 10 -7 15 4 19 10 4 13 1 10 -8 -4 -10 0
-12 15 -8 21 5 29 23 11 23 -5 0 -10 5 -10 10 0 7 7 7 21 0 16 -9 18 -14 8
-26z m57 -24 c0 -38 -5 -48 -19 -33 -4 3 -2 12 4 19 7 8 7 14 0 19 -9 5 -2 21
14 35 1 0 1 -18 1 -40z m2116 -88 c-7 -2 -10 -8 -6 -13 3 -5 1 -9 -4 -9 -5 0
-12 8 -15 19 -3 15 0 17 17 13 11 -3 15 -7 8 -10z m36 -51 c-2 -10 3 -15 14
-13 12 2 16 -2 12 -12 -8 -21 -44 -2 -44 23 0 13 -6 18 -17 16 -10 -1 -12 0
-5 2 6 3 12 9 12 15 0 6 6 6 15 -2 8 -7 14 -20 13 -29z m-65 -16 c-3 -9 -8
-14 -10 -11 -3 3 -2 9 2 15 9 16 15 13 8 -4z m-2113 -11 c0 -14 -3 -14 -15 -4
-8 7 -15 14 -15 16 0 2 7 4 15 4 8 0 15 -7 15 -16z m90 -14 c-18 -12 -43 -13
-36 -2 2 4 15 8 28 9 18 2 19 0 8 -7z m2075 -91 c7 -7 -1 -8 -25 -3 -19 3 -40
7 -47 7 -7 0 -10 5 -6 10 7 11 63 1 78 -14z m-10 -29 c23 -4 16 -10 -12 -10
-19 0 -30 5 -30 14 0 11 5 12 16 6 9 -4 21 -9 26 -10z m-1135 -238 c0 -5 -7
-9 -15 -9 -8 0 -12 4 -9 9 3 4 9 8 15 8 5 0 9 -4 9 -8z m90 -82 c0 -5 -7 -7
-15 -4 -8 4 -15 8 -15 10 0 2 7 4 15 4 8 0 15 -4 15 -10z m-566 -55 c-4 -8
-10 -15 -14 -15 -4 0 -10 -9 -13 -21 -7 -27 -24 -17 -22 12 1 13 10 26 21 30
29 11 34 10 28 -6z m411 -25 c-3 -5 -12 -10 -18 -10 -7 0 -6 4 3 10 19 12 23
12 15 0z m1005 -141 c0 -12 -27 -11 -35 1 -11 17 5 32 21 19 8 -6 14 -15 14
-20z"/>
<path d="M1676 2572 c-3 -6 -1 -14 5 -17 15 -10 25 3 12 16 -7 7 -13 7 -17 1z"/>
<path d="M1150 2881 c0 -6 -3 -10 -7 -10 -5 1 -15 1 -25 0 -19 -1 -18 -33 2
-39 9 -3 11 1 7 11 -4 11 -1 15 13 12 20 -4 36 20 20 30 -6 4 -10 1 -10 -4z"/>
<path d="M1171 2862 c-7 -12 -16 -20 -22 -17 -15 10 -10 -7 8 -27 15 -17 15
-20 3 -28 -10 -6 -11 -12 -5 -18 6 -5 17 -2 27 9 15 16 16 20 2 33 -18 19 -19
27 -4 36 7 4 10 14 8 21 -3 10 -8 7 -17 -9z"/>
<path d="M1952 2846 c-9 -20 -9 -33 -3 -39 16 -16 23 -3 19 35 l-4 33 -12 -29z"/>
<path d="M1687 2814 c-8 -8 1 -24 14 -24 5 0 9 7 9 15 0 15 -12 20 -23 9z"/>
<path d="M1988 2795 c-4 -17 -1 -25 8 -25 8 0 14 11 14 25 0 14 -4 25 -9 25
-5 0 -11 -11 -13 -25z"/>
<path d="M1340 2800 c0 -5 5 -10 10 -10 6 0 10 5 10 10 0 6 -4 10 -10 10 -5 0
-10 -4 -10 -10z"/>
<path d="M1840 2800 c0 -5 5 -10 10 -10 6 0 10 5 10 10 0 6 -4 10 -10 10 -5 0
-10 -4 -10 -10z"/>
<path d="M1935 2781 c-6 -11 20 -33 28 -24 4 3 7 10 7 14 0 11 -29 19 -35 10z"/>
<path d="M782 2768 c5 -15 28 -23 28 -10 0 5 -7 13 -16 16 -10 4 -14 1 -12 -6z"/>
<path d="M1840 2765 c0 -13 4 -14 20 -5 11 6 20 13 20 15 0 3 -9 5 -20 5 -11
0 -20 -7 -20 -15z"/>
<path d="M1170 2733 c0 -11 -5 -24 -12 -31 -8 -8 -8 -15 2 -27 18 -22 36 -3
36 36 -1 34 -26 55 -26 22z"/>
<path d="M570 2676 c0 -9 7 -12 21 -9 16 4 17 8 7 14 -19 13 -28 11 -28 -5z"/>
<path d="M627 2673 c-7 -7 -10 -43 -3 -43 8 0 76 31 76 34 0 2 -9 2 -20 -1
-11 -3 -26 0 -33 6 -8 6 -17 8 -20 4z"/>
<path d="M717 2664 c3 -8 12 -14 20 -14 8 0 12 -4 9 -8 -2 -4 4 -8 14 -8 24 0
17 11 -19 29 -25 12 -29 12 -24 1z"/>
<path d="M575 2640 c-3 -5 -1 -10 4 -10 6 0 11 -7 11 -16 0 -8 5 -12 10 -9 15
9 12 45 -4 45 -8 0 -18 -4 -21 -10z"/>
<path d="M787 2630 c-3 -11 -1 -20 4 -20 5 0 9 9 9 20 0 11 -2 20 -4 20 -2 0
-6 -9 -9 -20z"/>
<path d="M406 2621 c-3 -5 1 -11 9 -14 9 -4 12 -1 8 9 -6 16 -10 17 -17 5z"/>
<path d="M330 2600 c0 -5 4 -10 9 -10 6 0 13 5 16 10 3 6 -1 10 -9 10 -9 0
-16 -4 -16 -10z"/>
<path d="M736 2576 c3 -9 11 -16 16 -16 13 0 5 23 -10 28 -7 2 -10 -2 -6 -12z"/>
<path d="M285 2540 c-3 -5 -11 -8 -18 -6 -7 1 -9 1 -4 -1 4 -3 5 -8 3 -12 -3
-4 1 -8 9 -8 8 0 13 3 10 5 -3 3 0 11 6 19 6 7 9 13 6 13 -3 0 -8 -4 -12 -10z"/>
<path d="M170 2502 c-18 -15 -22 -25 -16 -46 5 -22 10 -26 29 -20 35 11 52 47
34 72 -13 16 -21 15 -47 -6z"/>
<path d="M87 2492 c-20 -22 -22 -35 -4 -29 6 2 12 8 12 13 0 5 4 15 8 22 12
18 3 15 -16 -6z"/>
<path d="M110 2481 c0 -5 7 -11 14 -14 10 -4 13 -1 9 9 -6 15 -23 19 -23 5z"/>
<path d="M40 2437 c0 -10 8 -17 18 -17 9 0 13 4 7 8 -5 4 -13 11 -17 16 -5 5
-8 2 -8 -7z"/>
<path d="M3192 2335 c-6 -14 -7 -25 -2 -25 9 0 25 39 18 46 -3 2 -10 -7 -16
-21z"/>
<path d="M300 2340 c-8 -5 -15 -21 -16 -35 l-1 -27 25 25 25 25 21 -22 c20
-22 72 -43 60 -25 -3 5 -12 9 -19 9 -8 0 -17 11 -21 25 -3 14 -9 25 -13 26 -3
0 -15 2 -26 4 -11 2 -27 0 -35 -5z"/>
<path d="M300 2264 c0 -14 3 -14 15 -4 8 7 15 14 15 16 0 2 -7 4 -15 4 -8 0
-15 -7 -15 -16z"/>
<path d="M3110 2249 c0 -5 5 -7 10 -4 6 3 10 8 10 11 0 2 -4 4 -10 4 -5 0 -10
-5 -10 -11z"/>
<path d="M170 2235 c0 -9 6 -12 15 -9 8 4 12 10 9 15 -8 14 -24 10 -24 -6z"/>
<path d="M377 2231 c-5 -22 8 -49 19 -38 13 13 12 31 -1 44 -10 9 -14 8 -18
-6z"/>
<path d="M480 2242 c0 -13 29 -48 30 -35 0 6 -5 15 -10 18 -6 4 -8 11 -5 16 4
5 1 9 -4 9 -6 0 -11 -4 -11 -8z"/>
<path d="M302 2229 c-13 -5 -20 -13 -17 -19 3 -5 2 -10 -4 -10 -5 0 -9 -9 -8
-19 0 -11 5 -17 9 -15 4 3 8 1 8 -4 0 -5 11 -14 25 -20 27 -12 35 -6 39 32 3
22 0 23 -26 15 -25 -7 -28 -6 -18 6 7 8 9 15 4 15 -5 0 -2 4 6 10 21 13 9 19
-18 9z"/>
<path d="M530 2224 c0 -8 5 -12 10 -9 6 4 8 11 5 16 -9 14 -15 11 -15 -7z"/>
<path d="M4 2170 c1 -17 7 -26 18 -26 9 0 14 4 12 8 -3 4 1 8 8 8 10 0 9 3 -2
9 -8 6 -17 8 -21 5 -4 -2 -9 2 -12 8 -2 7 -4 2 -3 -12z"/>
<path d="M165 2170 c-4 -7 0 -10 11 -8 10 2 19 -2 19 -9 0 -6 3 -14 8 -17 4
-3 5 -3 2 1 -3 3 0 12 6 20 8 8 8 13 1 13 -6 0 -17 3 -25 6 -8 3 -18 0 -22 -6z"/>
<path d="M84 2135 c25 -19 37 -19 30 0 -4 8 -16 15 -28 15 -21 -1 -21 -1 -2
-15z"/>
<path d="M460 2066 c0 -2 7 -9 15 -16 13 -11 14 -10 9 4 -5 14 -24 23 -24 12z"/>
<path d="M350 2051 c0 -5 -3 -17 -6 -25 -4 -12 -2 -15 9 -10 22 8 29 31 11 38
-8 3 -14 1 -14 -3z"/>
<path d="M107 2033 c-4 -3 -7 -11 -7 -17 0 -6 5 -5 12 2 6 6 9 14 7 17 -3 3
-9 2 -12 -2z"/>
<path d="M236 2001 c-3 -5 1 -11 9 -14 9 -4 12 -1 8 9 -6 16 -10 17 -17 5z"/>
<path d="M176 1918 c-5 -23 13 -47 31 -41 6 2 9 12 6 22 -3 11 1 18 10 18 9 0
13 -6 9 -15 -4 -11 -1 -13 8 -7 10 6 11 4 4 -6 -14 -23 -13 -35 5 -35 12 0 16
8 15 27 -2 36 -13 52 -29 45 -7 -2 -16 -2 -19 2 -14 14 -35 9 -40 -10z"/>
<path d="M310 1761 c0 -6 5 -11 10 -11 6 0 10 -13 10 -30 0 -16 5 -30 11 -30
6 0 9 9 6 19 -5 22 1 34 28 49 20 11 20 11 -2 12 -12 0 -25 -5 -28 -10 -5 -8
-11 -7 -21 1 -10 8 -14 8 -14 0z"/>
<path d="M285 1739 c-10 -15 3 -25 16 -12 7 7 7 13 1 17 -6 3 -14 1 -17 -5z"/>
<path d="M305 1701 c-3 -5 -2 -12 3 -15 5 -3 9 1 9 9 0 17 -3 19 -12 6z"/>
<path d="M336 1611 c-4 -5 -2 -12 3 -15 5 -4 12 -2 15 3 4 5 2 12 -3 15 -5 4
-12 2 -15 -3z"/>
<path d="M143 1593 c-7 -3 -13 -9 -13 -15 0 -6 7 -4 17 3 15 13 15 12 5 -7 -9
-16 -8 -21 4 -21 7 0 14 8 14 18 0 21 -10 28 -27 22z"/>
<path d="M250 1572 c-23 -18 -21 -42 3 -42 17 0 37 34 28 49 -6 9 -14 7 -31
-7z"/>
<path d="M64 1529 c-3 -6 -1 -16 5 -22 9 -9 10 -7 5 7 -6 15 -4 17 6 11 9 -5
11 -4 6 3 -9 15 -13 15 -22 1z"/>
<path d="M261 1504 c0 -11 3 -14 6 -6 3 7 2 16 -1 19 -3 4 -6 -2 -5 -13z"/>
<path d="M140 1490 c0 -20 2 -25 11 -22 5 1 9 -3 9 -10 0 -9 3 -9 11 -1 6 6
18 9 26 6 12 -5 11 -1 -3 15 -19 22 -54 30 -54 12z"/>
<path d="M59 1488 c-5 -18 -6 -38 -1 -34 7 8 12 36 6 36 -2 0 -4 -1 -5 -2z"/>
<path d="M260 1464 c0 -8 7 -14 15 -14 8 0 15 -4 15 -9 0 -5 7 -12 16 -15 8
-3 13 -2 9 3 -3 5 0 11 5 13 6 2 -5 11 -24 19 -30 14 -36 14 -36 3z"/>
<path d="M363 1391 c-10 -15 -9 -22 1 -30 10 -9 15 -8 20 4 4 11 2 14 -7 10
-6 -4 -4 0 5 8 10 8 15 17 11 20 -10 11 -17 8 -30 -12z"/>
<path d="M339 1333 c-13 -16 -12 -17 4 -4 9 7 17 15 17 17 0 8 -8 3 -21 -13z"/>
<path d="M409 1293 c-1 -5 -1 -11 0 -15 0 -5 -3 -8 -8 -8 -5 0 -4 -16 2 -36 9
-30 12 -33 18 -18 4 11 8 14 8 7 1 -7 11 -18 24 -24 17 -9 15 -4 -10 22 -24
25 -30 38 -23 49 13 19 12 30 0 30 -5 0 -11 -3 -11 -7z"/>
<path d="M2757 1169 c7 -7 15 -10 18 -7 3 3 -2 9 -12 12 -14 6 -15 5 -6 -5z"/>
<path d="M2834 1129 c-3 -6 -2 -15 3 -20 5 -5 9 -1 9 11 0 23 -2 24 -12 9z"/>
<path d="M2870 1120 c0 -5 5 -10 11 -10 5 0 7 5 4 10 -3 6 -8 10 -11 10 -2 0
-4 -4 -4 -10z"/>
<path d="M2935 1069 c-11 -16 -1 -19 13 -3 7 8 8 14 3 14 -5 0 -13 -5 -16 -11z"/>
<path d="M2886 1018 c3 -4 11 -5 19 -1 21 7 19 12 -4 10 -11 0 -18 -5 -15 -9z"/>
<path d="M2940 1010 c0 -5 5 -10 11 -10 5 0 7 5 4 10 -3 6 -8 10 -11 10 -2 0
-4 -4 -4 -10z"/>
<path d="M2891 972 c-17 -31 -13 -40 5 -14 9 13 14 26 11 29 -3 2 -10 -4 -16
-15z"/>
<path d="M2845 950 c4 -6 11 -8 16 -5 14 9 11 15 -7 15 -8 0 -12 -5 -9 -10z"/>
<path d="M785 900 c-3 -5 3 -10 15 -10 12 0 18 5 15 10 -3 6 -10 10 -15 10 -5
0 -12 -4 -15 -10z"/>
<path d="M2923 895 c-3 -9 -3 -18 -1 -21 3 -3 8 4 11 16 6 23 -1 27 -10 5z"/>
<path d="M2880 881 c0 -5 7 -11 14 -14 10 -4 13 -1 9 9 -6 15 -23 19 -23 5z"/>
<path d="M2879 846 c0 -1 -2 -9 -4 -19 -3 -18 -3 -18 16 -1 10 9 19 18 19 19
0 2 -29 3 -31 1z"/>
<path d="M885 654 c9 -9 19 -13 23 -10 3 4 0 11 -8 16 -24 15 -33 11 -15 -6z"/>
<path d="M1627 639 c7 -7 15 -10 18 -7 3 3 -2 9 -12 12 -14 6 -15 5 -6 -5z"/>
<path d="M1843 637 c0 -8 6 -14 14 -14 9 0 10 4 2 14 -6 7 -12 13 -14 13 -1 0
-2 -6 -2 -13z"/>
<path d="M1932 626 c-8 -19 -8 -27 2 -35 9 -8 13 -2 14 24 3 41 -1 44 -16 11z"/>
<path d="M822 619 c2 -6 7 -10 12 -9 5 1 12 -4 16 -10 5 -9 13 -9 25 -3 20 12
11 20 -29 27 -16 3 -26 1 -24 -5z"/>
<path d="M1885 619 c-4 -6 -5 -12 -2 -15 2 -3 7 2 10 11 7 17 1 20 -8 4z"/>
<path d="M1635 610 c3 -5 1 -10 -6 -10 -7 0 -9 -3 -6 -7 4 -3 1 -13 -6 -22
-10 -14 -10 -14 4 -4 9 7 18 11 20 8 3 -2 6 7 7 20 1 14 -3 25 -9 25 -5 0 -7
-4 -4 -10z"/>
<path d="M2830 600 c6 -11 13 -20 16 -20 2 0 0 9 -6 20 -6 11 -13 20 -16 20
-2 0 0 -9 6 -20z"/>
<path d="M1990 587 c-12 -21 -12 -21 6 -7 10 8 20 15 22 16 2 1 -1 4 -5 7 -5
3 -15 -4 -23 -16z"/>
<path d="M1950 559 c0 -5 5 -7 10 -4 6 3 10 8 10 11 0 2 -4 4 -10 4 -5 0 -10
-5 -10 -11z"/>
<path d="M2000 566 c0 -2 7 -7 16 -10 8 -3 12 -2 9 4 -6 10 -25 14 -25 6z"/>
<path d="M2640 550 c-8 -5 -10 -10 -5 -10 6 0 17 5 25 10 8 5 11 10 5 10 -5 0
-17 -5 -25 -10z"/>
<path d="M1096 535 c-6 -16 14 -16 27 0 4 6 11 5 16 -5 6 -8 13 -11 18 -7 9
10 -15 27 -38 27 -9 0 -19 -7 -23 -15z"/>
<path d="M1640 534 c-13 -16 -13 -17 2 -11 11 4 18 0 20 -11 3 -13 5 -12 10 6
3 12 2 20 -2 17 -5 -3 -10 0 -12 6 -2 7 -10 4 -18 -7z"/>
<path d="M1860 540 c-12 -8 -9 -9 12 -8 15 1 24 6 22 10 -7 10 -16 10 -34 -2z"/>
<path d="M1970 538 c0 -7 4 -19 9 -26 7 -11 9 -11 13 0 3 7 -1 19 -8 26 -11
10 -14 10 -14 0z"/>
<path d="M845 531 c-6 -11 9 -23 19 -14 9 9 7 23 -3 23 -6 0 -12 -4 -16 -9z"/>
<path d="M2015 520 c-3 -5 -1 -10 4 -10 6 0 11 5 11 10 0 6 -2 10 -4 10 -3 0
-8 -4 -11 -10z"/>
<path d="M1070 510 c0 -5 5 -10 11 -10 5 0 7 5 4 10 -3 6 -8 10 -11 10 -2 0
-4 -4 -4 -10z"/>
<path d="M873 488 c1 -7 -4 -12 -10 -10 -7 1 -13 -2 -13 -8 0 -13 16 -13 41 0
25 14 24 30 -1 30 -11 0 -19 -6 -17 -12z"/>
<path d="M2080 486 c0 -9 7 -16 16 -16 9 0 14 5 12 12 -6 18 -28 21 -28 4z"/>
<path d="M1364 477 c-4 -7 -4 -9 1 -5 4 4 14 3 22 -3 8 -7 13 -8 13 -1 0 15
-28 23 -36 9z"/>
<path d="M2297 459 c7 -7 15 -10 18 -7 3 3 -2 9 -12 12 -14 6 -15 5 -6 -5z"/>
</g>
</svg>
